<svg xmlns="http://www.w3.org/2000/svg" viewBox="0 0 64 64">
  <path d="M38.2 4.7l2.3 5.6a23 23 0 0 1 5.4 3.1l6-.8a2 2 0 0 1 1.8.9l4.2 7.3a2 2 0 0 1-.3 2.2l-3.7 4.8a23 23 0 0 1 0 6.2l3.7 4.8a2 2 0 0 1 .3 2.2l-4.2 7.3a2 2 0 0 1-1.8.9l-6-.8a23 23 0 0 1-5.4 3.1l-2.3 5.6a2 2 0 0 1-1.8 1.2h-8.4a2 2 0 0 1-1.8-1.2l-2.3-5.6a23 23 0 0 1-5.4-3.1l-6 .8a2 2 0 0 1-1.8-.9l-4.2-7.3a2 2 0 0 1 .3-2.2l3.7-4.8a23 23 0 0 1 0-6.2l-3.7-4.8a2 2 0 0 1-.3-2.2l4.2-7.3a2 2 0 0 1 1.8-.9l6 .8a23 23 0 0 1 5.4-3.1l2.3-5.6A2 2 0 0 1 28.2 3.5h8.4a2 2 0 0 1 1.6 1.2z" fill="none" stroke="#006878" stroke-width="3"/>
  <path d="M26 32a6 6 0 0 1 6-6" fill="none" stroke="#006878" stroke-width="2.5" stroke-linecap="round"/>
  <path d="M38 32a6 6 0 0 1-6 6" fill="none" stroke="#006878" stroke-width="2.5" stroke-linecap="round"/>
  <path d="M32 26l3-3-3-1" fill="none" stroke="#006878" stroke-width="2" stroke-linecap="round" stroke-linejoin="round"/>
  <path d="M32 38l-3 3 3 1" fill="none" stroke="#006878" stroke-width="2" stroke-linecap="round" stroke-linejoin="round"/>
</svg>
